<?xml version="1.0" encoding="UTF-8"?>
<svg id="Layer_2" data-name="Layer 2" xmlns="http://www.w3.org/2000/svg" viewBox="0 0 162.03 162.31">
  <defs>
    <style>
      .cls-1 {
        fill: #fff;
      }
    </style>
  </defs>
  <g id="Layer_2-2" data-name="Layer 2">
    <path class="cls-1" d="m104.17,0h4.3c.28.05.55.09.83.14.51.05,1.03.11,1.54.16-.02-.1-.04-.2-.06-.3h.33c-.23.54.26.44.48.48.75.14,1.55.13,2.27.37,2.01.67,4,1.41,5.97,2.2.66.26,1.23.74,1.83,1.13,1.3.84,2.68,1.57,3.86,2.56,1.35,1.13,2.56,2.46,3.76,3.76,1.85,2.01,3.34,4.31,4.29,6.86.86,2.29,1.46,4.68,2.17,7.03.15.51.14,1.16.47,1.49.31.31.96.26,1.46.4,1.86.54,3.75,1.01,5.57,1.66,4.46,1.62,8.25,4.29,11.41,7.8,2.53,2.82,4.55,5.97,5.72,9.6.45,1.39.76,2.83,1.18,4.24.06.19.32.32.48.48v8.26c-.12.56-.19,1.14-.36,1.69-.75,2.46-1.34,5-2.35,7.36-1.97,4.59-5.1,8.32-9.16,11.26-2.05,1.48-4.28,2.61-6.65,3.49-.11.1-.22.2-.33.3l-2.64.57c-.11.04-.23.08-.34.12-2.36.96-4.88.92-7.35,1.14-.83.07-1.68-.05-2.52-.15-1.41-.17-2.83-.32-4.22-.61-2.28-.47-4.47-1.23-6.58-2.23l-.33-.12h0c-.11-.05-.23-.11-.34-.16-1.54-.81-1.2-.68-2.21.32-6.28,6.27-12.56,12.55-18.83,18.83-.21.21-.4.44-.61.66l-4.97,4.97c-.05.03-.1.05-.14.08-4.01,4.07-8.03,8.14-12.04,12.22-.02.02-.02.05-.03.06.7,1.48,1.47,2.91,2.07,4.42.46,1.16.6,2.45,1.1,3.58.52,1.18.32,2.42.62,3.61.1.17.2.34.29.51-.04.34-.1.68-.13,1.02-.18,1.86.4,3.76-.33,5.58v.08c-.32,1.41-.64,2.81-.96,4.22,0,.11,0,.22.01.33-.8,3.29-2.36,6.2-4.35,8.91-.53.05-.67.38-.64.85-5.25,6.61-12.15,10.14-20.51,10.93-.33.05-.66.09-.99.14h-2.98c-.11-.05-.22-.15-.33-.15-2.86-.07-5.59-.75-8.27-1.69-.05-.05-.11-.09-.16-.14-1.29-.56-2.57-1.13-3.86-1.69,0-.05,0-.1-.02-.15-.02.05-.04.09-.05.14-1.61-1.14-3.22-2.28-4.83-3.41-.1-.11-.21-.23-.31-.34-.77-.78-1.55-1.56-2.32-2.34-.14-.1-.29-.2-.43-.3-.12-.24-.23-.49-.37-.71-.98-1.46-2.03-2.88-2.92-4.39-.64-1.09-1.06-2.32-1.57-3.49-.1-.16-.2-.33-.3-.49-.29-.78-.57-1.57-.86-2.35v-.14c-.22-1.17-.46-2.34-.65-3.52-.08-.49-.31-.81-.78-.93-1.39-.34-2.79-.64-4.17-1-2.27-.6-4.43-1.49-6.44-2.73-.86-.53-1.77-.96-2.66-1.44-.17-.15-.33-.3-.5-.46-.61-.51-1.21-1.02-1.82-1.53-.15-.15-.31-.3-.46-.46-1.1-1.33-2.52-2.32-3.5-3.8-1.67-2.5-3.15-5.06-4.21-7.88-.87-2.31-1.53-4.62-1.43-7.14.12-2.82.1-5.64.15-8.46.07-.33.13-.65.2-.98.15-.45.31-.89.46-1.34.55-1.44,1.01-2.93,1.67-4.32,1.48-3.11,3.46-5.9,5.96-8.3.82-.78,1.68-1.51,2.53-2.26.06-.01.09-.05.12-.1.26-.18.51-.38.78-.54,1.51-.89,3.03-1.78,4.55-2.67.04-.04.08-.08.13-.12,1.05-.38,2.09-.84,3.17-1.13,1.75-.47,3.51-1.08,5.29-1.17,2.95-.15,5.93-.05,8.89.15,1.64.11,3.3.47,4.85,1.01,1.74.6,3.37,1.53,5.12,2.35.14-.15.33-.38.54-.6,10.57-10.57,21.14-21.14,31.71-31.71,1.67-1.67,3.34-3.36,5.03-5.01.38-.37.42-.69.19-1.14-.3-.6-.56-1.22-.84-1.83.04-.02.08-.04.13-.06l-.13-.02c-.12-.3-.24-.59-.36-.89-.04-.04-.08-.09-.12-.13-.29-.89-.57-1.78-.86-2.68l-.14-.3c-.11-.26-.26-.51-.32-.79-.29-1.48-.68-2.95-.8-4.44-.14-1.69-.04-3.4-.04-5.09v-3.26l.33-.33c.34-1.32.68-2.64,1.02-3.97.05-.06.09-.11.14-.17.07-.27.14-.55.21-.82.15-.28.3-.56.44-.84,1.42-3.3,3.35-6.27,5.8-8.89.33-.33.67-.67,1-1,.2-.17.41-.33.61-.5.07-.05.13-.1.2-.14.38-.3.77-.6,1.15-.89.04-.04.09-.08.13-.12,1.71-1.12,3.37-2.35,5.16-3.34,2.35-1.3,4.93-1.97,7.57-2.45.84-.15,1.69-.33,2.53-.49h.01Zm-58.83,144.21l.25.21c.18.13.35.26.53.39.39.27.79.54,1.18.81.55.32,1.11.64,1.66.96.28.06.55.12.83.18.72.21,1.43.43,2.15.64.14.07.28.19.42.19,2.95.07,5.9.19,8.67-1.14,1.27-.79,2.53-1.58,3.8-2.38.61-.6,1.21-1.2,1.82-1.8.04-.04.07-.08.11-.12.06-.12.11-.24.17-.36.58-1.15,1.17-2.3,1.75-3.45l.12-.18c.03-.16.04-.32.08-.47.95-3.11,1.15-6.23.08-9.36-.79-2.28-2.06-4.29-3.71-6.03-1.79-1.9-1.96-4.21-1.69-6.59.09-.76.57-1.57,1.08-2.17,1.38-1.59,2.88-3.08,4.33-4.61l.51-.51,7.43-7.59.84-.84c2.97-3,5.93-6.02,8.92-9.01,2.7-2.69,5.46-5.34,8.16-8.03,2.75-2.73,5.47-5.5,8.2-8.25l1.17-1.17c2.22-2.15,4.43-4.31,6.68-6.44.82-.78,1.7-1.48,2.56-2.21.09-.09.18-.19.27-.28.45-.22.88-.57,1.35-.64,1.91-.28,3.83-.5,5.64.49l.18.12.31.21.18.12c.85.67,1.67,1.36,2.54,1.99,2.03,1.47,4.28,2.5,6.76,2.81.95.12,2.08.46,2.98-.47.69.89,1.5.22,2.27.15l1.32-.33c.89-.14,1.53-.87,2.46-.99.34-.04.6-.58.92-.86.13-.11.31-.19.47-.24.2-.06.47,0,.61-.12.73-.57,1.53-1.09,2.12-1.78,1.49-1.75,2.68-3.65,3.24-5.96.64-2.62.56-5.2.02-7.79-.67-3.21-2.58-5.66-5.03-7.72-1.32-1.1-2.8-1.95-4.49-2.4l-1.32-.21h-1c0-.37-.06-.65-.49-.32-1.68.06-3.34-.32-5.05-.04-1.15.19-2.36-.05-3.55-.09-.6-.29-1.2-.59-1.8-.88h0c-.34-.29-.68-.59-1.02-.88,0-.05-.03-.08-.08-.09l-.71-.89c-.06-.14-.13-.29-.19-.43l-.13-.17c-.84-1.26-.9-2.69-.89-4.13l.17-.99v-4.3c-.06-.33-.11-.66-.17-.99-.1-.5-.2-1-.3-1.5-.12-.44-.24-.87-.35-1.31-.16-.39-.32-.77-.48-1.16-.05-.05-.09-.11-.14-.16l-.34-.71c-.66-.87-1.32-1.74-1.99-2.61-.17-.21-.35-.42-.52-.63-.29-.28-.57-.57-.86-.85-.04-.05-.09-.09-.13-.14-.27-.16-.55-.32-.82-.48-.22-.13-.44-.26-.66-.39-.26-.17-.53-.33-.79-.5-.9-.37-1.79-.74-2.69-1.11l-.99-.31c-.22,0-.44-.01-.66-.02-.28-.06-.55-.11-.83-.17-1.95-.26-3.88-.23-5.78.34-.5.16-.99.33-1.49.49-.66.31-1.33.62-1.99.93-.38.22-.77.45-1.15.67-.34.28-.68.55-1.03.83-.26.23-.52.47-.78.7-.12.1-.23.19-.35.29-.94,1.38-1.87,2.76-2.81,4.14-.04.06-.08.12-.12.18-.01.11-.02.23-.04.34-.08.24-.82.14-.34.66-.32.85-.68,1.69-.63,2.63-.06,1.1-.11,2.2-.17,3.31.05.26.1.52.16.78.26,1.06.53,2.13.79,3.19.13.38.25.77.38,1.15.04.05.09.11.13.16.92,1.39,1.84,2.78,2.76,4.17.4.6.79,1.19,1.19,1.78.07.22.14.44.21.67.16.37.43.74.44,1.13.05,1.22,0,2.44,0,3.66-.22.48-.44.97-.66,1.45-.27.27-.53.55-.8.82-.34.35-.67.69-1.01,1.04-.66.71-1.32,1.42-1.98,2.13-.55.56-1.1,1.11-1.66,1.67-.93.94-1.85,1.88-2.78,2.82-.72.06-1.11.45-1.17,1.17-1,1.03-1.99,2.07-2.99,3.1l-3.15,3.15c-.61.65-1.22,1.31-1.85,1.94-3.91,3.91-7.81,7.83-11.73,11.73-1.02,1.02-2.07,2.01-3.11,3.01l-1.51,1.51c-1.2,1.16-2.39,2.32-3.59,3.48-.49-.05-.72.18-.67.67-1.38,1.37-2.77,2.74-4.15,4.11-.55.55-1.1,1.09-1.65,1.64-1.1,1.05-2.21,2.1-3.31,3.15-.33.33-.65.67-.98,1-.28.27-.56.55-.84.82-.27.23-.54.45-.81.68l-.34.14c-.33.11-.66.22-.99.33-.99.02-1.98.03-2.97.05-.32-.11-.53-.82-.99-.2-.38-.12-.76-.24-1.14-.36-.84-.62-1.69-1.24-2.53-1.86-.08-.06-.15-.12-.23-.19-.51-.35-1.02-.71-1.53-1.06-.28-.17-.56-.34-.84-.51-.83-.37-1.66-.74-2.49-1.11-2.66-.93-5.37-.87-8.1-.41-.17.07-.33.14-.5.2-.38.11-.77.23-1.15.34l-1.15.38c-.55.28-1.1.56-1.66.84-.06.04-.12.08-.19.12-.1.07-.21.14-.31.21-.06.04-.12.08-.18.11h0c-1.96,1.05-3.13,2.81-4.25,4.64-.24.48-.48.95-.72,1.43-.16.35-.33.69-.49,1.04-.15.5-.3,1-.45,1.49-.03.27-.05.54-.08.81-.03.39-.05.78-.08,1.17,0,.17,0,.33-.01.5-.07.71-.14,1.43-.21,2.14-.56.46-.11.71.21.99.06.39.12.78.18,1.16.09.39.18.77.27,1.16.34.77.69,1.54,1.03,2.31.2.34.4.67.6,1.01.08.16.16.32.23.48.93.99,1.85,1.99,2.78,2.98.38.33.75.66,1.13.99.06.04.12.08.19.12.26.13.52.26.78.4,1.32.9,2.72,1.61,4.35,1.77,2.64.06,5.29.11,7.93.17.39.06.77.11,1.16.17l1.65.38c1.39,1.02,2.73,2.08,3.34,3.78v.17c.06.22.11.44.17.66.05,2.2.11,4.41.16,6.61,0,.33,0,.66.02.99,0,.33,0,.66-.02.99-.07.22-.14.44-.21.67.06.11.11.22.17.33.13.27.25.55.38.82.22.5.43.99.65,1.49.16.35.32.69.48,1.04.16.27.32.54.47.81.56.78,1.12,1.55,1.68,2.33.27.27.54.53.81.8.17.13.34.26.52.39l.05-.02Z"/>
  </g>
</svg>