<?xml version="1.0" encoding="UTF-8"?>
<svg id="Layer_2" data-name="Layer 2" xmlns="http://www.w3.org/2000/svg" viewBox="0 0 15.83 15.83">
  <defs>
    <style>
      .cls-1 {
        fill: #fff;
      }

      .cls-2 {
        fill: #ed1f24;
      }
    </style>
  </defs>
  <g id="Layer_1-2" data-name="Layer 1">
    <g>
      <rect class="cls-2" width="15.83" height="15.83"/>
      <path class="cls-1" d="m9.91.93c.12,0,.25,0,.37,0,.02,0,.05,0,.07.01.04,0,.09,0,.13.01,0,0,0-.02,0-.03,0,0,.02,0,.03,0-.02.05.02.04.04.04.06.01.13.01.2.03.17.06.34.12.51.19.06.02.11.06.16.1.11.07.23.14.33.22.12.1.22.21.32.32.16.17.29.37.37.59.07.2.13.4.19.61.01.04.01.1.04.13.03.03.08.02.13.03.16.05.32.09.48.14.38.14.71.37.98.67.22.24.39.51.49.83.04.12.07.24.1.37,0,.02.03.03.04.04v.71s-.02.1-.03.15c-.06.21-.11.43-.2.63-.17.39-.44.72-.79.97-.18.13-.37.22-.57.3,0,0-.02.02-.03.03l-.23.05s-.02,0-.03.01c-.2.08-.42.08-.63.1-.07,0-.14,0-.22-.01-.12-.01-.24-.03-.36-.05-.2-.04-.39-.11-.57-.19,0,0-.02,0-.03-.01h0s-.02,0-.03-.01c-.13-.07-.1-.06-.19.03-.54.54-1.08,1.08-1.62,1.62-.02.02-.03.04-.05.06-.14.14-.29.29-.43.43,0,0,0,0-.01,0-.35.35-.69.7-1.04,1.05,0,0,0,0,0,0,.06.13.13.25.18.38.04.1.05.21.09.31.04.1.03.21.05.31,0,.01.02.03.03.04,0,.03,0,.06-.01.09-.02.16.03.32-.03.48,0,0,0,0,0,0-.03.12-.05.24-.08.36,0,0,0,.02,0,.03-.07.28-.2.53-.37.77-.05,0-.06.03-.06.07-.45.57-1.05.87-1.76.94-.03,0-.06,0-.09.01h-.26s-.02-.01-.03-.01c-.25,0-.48-.06-.71-.15,0,0,0,0-.01-.01-.11-.05-.22-.1-.33-.15,0,0,0,0,0-.01,0,0,0,0,0,.01-.14-.1-.28-.2-.42-.29,0,0-.02-.02-.03-.03-.07-.07-.13-.13-.2-.2-.01,0-.02-.02-.04-.03-.01-.02-.02-.04-.03-.06-.08-.13-.18-.25-.25-.38-.06-.09-.09-.2-.14-.3,0-.01-.02-.03-.03-.04-.02-.07-.05-.13-.07-.2,0,0,0,0,0-.01-.02-.1-.04-.2-.06-.3,0-.04-.03-.07-.07-.08-.12-.03-.24-.05-.36-.09-.2-.05-.38-.13-.55-.23-.07-.05-.15-.08-.23-.12-.01-.01-.03-.03-.04-.04-.05-.04-.1-.09-.16-.13-.01-.01-.03-.03-.04-.04-.09-.11-.22-.2-.3-.33-.14-.21-.27-.44-.36-.68-.07-.2-.13-.4-.12-.61.01-.24,0-.49.01-.73,0-.03.01-.06.02-.08.01-.04.03-.08.04-.11.05-.12.09-.25.14-.37.13-.27.3-.51.51-.71.07-.07.14-.13.22-.19,0,0,0,0,0,0,.02-.02.04-.03.07-.05.13-.08.26-.15.39-.23,0,0,0,0,.01,0,.09-.03.18-.07.27-.1.15-.04.3-.09.46-.1.25-.01.51,0,.76.01.14,0,.28.04.42.09.15.05.29.13.44.2.01-.01.03-.03.05-.05.91-.91,1.82-1.82,2.73-2.73.14-.14.29-.29.43-.43.03-.03.04-.06.02-.1-.03-.05-.05-.1-.07-.16,0,0,0,0,.01,0h-.01s-.02-.05-.03-.08c0,0,0,0-.01-.01-.02-.08-.05-.15-.07-.23v-.03s-.03-.04-.04-.07c-.03-.13-.06-.25-.07-.38-.01-.15,0-.29,0-.44,0-.09,0-.19,0-.28,0,0,.02-.02.03-.03.03-.11.06-.23.09-.34,0,0,0,0,.01-.01,0-.02.01-.05.02-.07.01-.02.03-.05.04-.07.12-.28.29-.54.5-.77.03-.03.06-.06.09-.09.02-.01.04-.03.05-.04,0,0,.01,0,.02-.01.03-.03.07-.05.1-.08,0,0,0,0,.01-.01.15-.1.29-.2.44-.29.2-.11.42-.17.65-.21.07-.01.15-.03.22-.04Zm-5.06,12.41l.02.02s.03.02.05.03c.03.02.07.05.1.07.05.03.1.05.14.08.02,0,.05.01.07.02.06.02.12.04.18.06.01,0,.02.02.04.02.25,0,.51.02.75-.1.11-.07.22-.14.33-.2.05-.05.1-.1.16-.16,0,0,0,0,0-.01,0-.01,0-.02.01-.03.05-.1.1-.2.15-.3,0,0,0-.01,0-.02,0-.01,0-.03,0-.04.08-.27.1-.54,0-.81-.07-.2-.18-.37-.32-.52-.15-.16-.17-.36-.15-.57,0-.07.05-.14.09-.19.12-.14.25-.27.37-.4.01-.01.03-.03.04-.04l.64-.65s.05-.05.07-.07c.26-.26.51-.52.77-.78.23-.23.47-.46.7-.69.24-.24.47-.47.71-.71.03-.03.07-.07.1-.1.19-.18.38-.37.57-.55.07-.07.15-.13.22-.19,0,0,.02-.02.02-.02.04-.02.08-.05.12-.06.16-.02.33-.04.49.04,0,0,.01,0,.02,0l.03.02s.01,0,.02,0c.07.06.14.12.22.17.17.13.37.22.58.24.08.01.18.04.26-.04.06.08.13.02.2.01.04,0,.08-.02.11-.03.08-.01.13-.08.21-.09.03,0,.05-.05.08-.07.01,0,.03-.02.04-.02.02,0,.04,0,.05-.01.06-.05.13-.09.18-.15.13-.15.23-.31.28-.51.05-.23.05-.45,0-.67-.06-.28-.22-.49-.43-.66-.11-.09-.24-.17-.39-.21-.04,0-.08-.01-.11-.02h-.09s0-.06-.04-.03c-.14,0-.29-.03-.43,0-.1.02-.2,0-.31,0-.05-.03-.1-.05-.16-.08,0,0,0,0,0,0-.03-.03-.06-.05-.09-.08,0,0,0,0,0,0l-.06-.08s-.01-.02-.02-.04h-.01c-.07-.12-.08-.25-.08-.37v-.09c.01-.12.01-.25.01-.37,0-.03,0-.06-.01-.09,0-.04-.02-.09-.03-.13-.01-.04-.02-.07-.03-.11-.01-.03-.03-.07-.04-.1,0,0,0,0-.01-.01l-.03-.06c-.06-.07-.11-.15-.17-.22-.01-.02-.03-.04-.04-.05-.02-.02-.05-.05-.07-.07,0,0,0,0-.01-.01-.02-.01-.05-.03-.07-.04-.02-.01-.04-.02-.06-.03-.02-.01-.05-.03-.07-.04-.08-.03-.15-.06-.23-.1l-.09-.03s-.04,0-.06,0c-.02,0-.05,0-.07-.01-.17-.02-.33-.02-.5.03-.04.01-.09.03-.13.04-.06.03-.11.05-.17.08-.03.02-.07.04-.1.06-.03.02-.06.05-.09.07-.02.02-.04.04-.07.06,0,0-.02.02-.03.02-.08.12-.16.24-.24.36,0,0,0,.01-.01.02,0,0,0,.02,0,.03,0,.02-.07.01-.03.06-.03.07-.06.15-.05.23,0,.09,0,.19-.01.28,0,.02,0,.05.01.07.02.09.05.18.07.27.01.03.02.07.03.1,0,0,0,0,.01.01.08.12.16.24.24.36.03.05.07.1.1.15,0,.02.01.04.02.06.01.03.04.06.04.1,0,.1,0,.21,0,.32-.02.04-.04.08-.06.12-.02.02-.05.05-.07.07-.03.03-.06.06-.09.09-.06.06-.11.12-.17.18-.05.05-.1.1-.14.14-.08.08-.16.16-.24.24-.06,0-.1.04-.1.1-.09.09-.17.18-.26.27l-.27.27c-.05.06-.1.11-.16.17-.34.34-.67.67-1.01,1.01-.09.09-.18.17-.27.26l-.13.13c-.1.1-.21.2-.31.3-.04,0-.06.02-.06.06-.12.12-.24.24-.36.35-.05.05-.09.09-.14.14-.1.09-.19.18-.29.27-.03.03-.06.06-.08.09-.02.02-.05.05-.07.07-.02.02-.05.04-.07.06h-.03s-.06.03-.09.04c-.09,0-.17,0-.26,0-.03,0-.05-.07-.09-.02-.03-.01-.07-.02-.1-.03-.07-.05-.15-.11-.22-.16,0,0-.01-.01-.02-.02-.04-.03-.09-.06-.13-.09-.02-.01-.05-.03-.07-.04-.07-.03-.14-.06-.21-.1-.23-.08-.46-.07-.7-.04-.01,0-.03.01-.04.02-.03,0-.07.02-.1.03l-.1.03s-.1.05-.14.07c0,0-.01,0-.02.01,0,0-.02.01-.03.02,0,0-.01,0-.02,0h0c-.17.09-.27.24-.37.4-.02.04-.04.08-.06.12-.01.03-.03.06-.04.09-.01.04-.03.09-.04.13,0,.02,0,.05,0,.07,0,.03,0,.07,0,.1,0,.01,0,.03,0,.04,0,.06-.01.12-.02.18-.05.04,0,.06.02.09,0,.03.01.07.02.1,0,.03.02.07.02.1.03.07.06.13.09.2.02.03.03.06.05.09,0,.01.01.03.02.04.08.09.16.17.24.26.03.03.06.06.1.08,0,0,.01,0,.02.01.02.01.04.02.07.03.11.08.23.14.37.15.23,0,.46,0,.68.01.03,0,.07,0,.1.01l.14.03c.12.09.23.18.29.33,0,0,0,0,0,.01,0,.02,0,.04.01.06,0,.19,0,.38.01.57,0,.03,0,.06,0,.09,0,.03,0,.06,0,.09,0,.02-.01.04-.02.06,0,0,0,.02.01.03.01.02.02.05.03.07.02.04.04.09.06.13.01.03.03.06.04.09.01.02.03.05.04.07.05.07.1.13.14.2.02.02.05.05.07.07.01.01.03.02.04.03Z"/>
    </g>
  </g>
</svg>