<?xml version="1.0" encoding="UTF-8"?>
<svg id="Layer_2" data-name="Layer 2" xmlns="http://www.w3.org/2000/svg" viewBox="0 0 164.06 163.75">
  <defs>
    <style>
      .cls-1 {
        fill: #fff;
      }
    </style>
  </defs>
  <g id="Layer_1-2" data-name="Layer 1">
    <path class="cls-1" d="m156.54,35.41c-6.54-5.88-20.11-8.92-20.11-8.92,0,0-2.73-12.34-7.7-17.39-4.97-5.05-18.63-17.08-39.7-1.07-19.39,14.73-6.62,37.82-6.62,37.82l-37.84,36.13s-22.1-10.56-36.25,4.83c-14.15,15.39-6.25,30.55-4.96,34.76,7.44,13.16,24.33,15.14,24.33,15.14,0,0,2.35,14.78,8.19,19.87,4.17,3.64,19.61,14.15,39.23,0,19.61-14.15,7.08-37.99,7.08-37.99l37.36-36.54s26.44,9.11,37.99-7.65c11.54-16.76,5.54-33.11-.99-38.99Zm-10.68,28.27c-3.11,3.79-10.68,9.5-20.86,3.35-6.02-5.34-11.05-.87-11.05-.87,0,0-43.9,43.41-47.42,47.05-3.52,3.64-1.37,8.44-1.37,8.44,0,0,11.46,11.83,1.61,22.22-9.85,10.39-21.6,1.31-25.08-7.32-1.96-4.86,1.54-8.82-1.12-11.92-3.57-3.54-7.67-.96-15.64-2.61-7.98-1.64-11.25-15.37-7.45-21.23,3.59-5.53,12.33-11.26,23.34-4.22.82.44,6.17,3.64,9.19,1.24.51-.49,24.86-24.18,49.41-49.41,1.16-1.2,1.55-2.86-.74-6.95-10.43-13.72-.37-20.99.63-22.09,4.15-4.58,15.54-5.3,20.48.98,4.7,5.99-.27,13.83,4.47,18.63,4.92,4.98,12.33.7,18.5,5.72,5.55,4.52,7.18,14.02,3.1,18.99Z"/>
  </g>
</svg>